<?xml version="1.0" encoding="UTF-8"?>
<svg width="13px" height="22px" viewBox="0 0 13 22" version="1.1" xmlns="http://www.w3.org/2000/svg" xmlns:xlink="http://www.w3.org/1999/xlink">
    <g id="Page-2" stroke="none" stroke-width="1" fill="none" fill-rule="evenodd">
        <g id="01-Home" transform="translate(-46.000000, -2960.000000)" fill="#13404D" fill-rule="nonzero">
            <g id="Group-52" transform="translate(27.000000, 2822.000000)">
                <g id="Group-23" transform="translate(20.000000, 139.000000)">
                    <path d="M-0.739940073,-0.672672794 C-0.397010603,-1.04989521 0.168259466,-1.10457379 0.574615207,-0.818553536 L0.672672794,-0.739940073 L11.6726728,9.26005993 C12.077935,9.62848016 12.1068824,10.246606 11.7595147,10.6506985 L11.6726728,10.7399401 L0.672672794,20.7399401 C0.264015176,21.111447 -0.368433148,21.0813304 -0.739940073,20.6726728 C-1.08286954,20.2954504 -1.08358726,19.7275424 -0.760248229,19.3502038 L-0.672672794,19.2600599 L9.514,9.99999295 L-0.672672794,0.739940073 C-1.04989521,0.397010603 -1.10457379,-0.168259466 -0.818553536,-0.574615207 L-0.739940073,-0.672672794 Z" id="Stroke-1-Copy-4" transform="translate(5.499996, 10.000000) rotate(-180.000000) translate(-5.499996, -10.000000) "></path>
                </g>
            </g>
        </g>
    </g>
</svg>