<?xml version="1.0" encoding="utf-8"?>
<svg width="124px" height="124px" viewBox="0 0 124 124" version="1.1" xmlns:xlink="http://www.w3.org/1999/xlink" xmlns="http://www.w3.org/2000/svg">
  <g id="Group-7" transform="translate(1.3222656 1.3220005)">
    <path d="M94.6796 47.3575C94.6796 73.5146 73.4871 94.715 47.3398 94.715C21.1924 94.715 0 73.5146 0 47.3575C0 21.2004 21.1924 0 47.3398 0C73.4871 0 94.6796 21.2004 94.6796 47.3575Z" id="Stroke-1" fill="none" fill-rule="evenodd" stroke="#FFFFFF" stroke-width="2.644" stroke-linecap="round" stroke-linejoin="round" />
    <path d="M32.0675 32.0794L32.0675 32.0794C28.9851 35.1629 23.9881 35.1629 20.911 32.0794L2.31176 13.4732C-0.770587 10.395 -0.770587 5.39612 2.31176 2.31262C5.39411 -0.770875 10.3911 -0.770875 13.4682 2.31262L32.0675 20.9189C35.1498 23.9971 35.1498 28.9959 32.0675 32.0794Z" transform="translate(86.62079 86.607925)" id="Stroke-3" fill="none" fill-rule="evenodd" stroke="#FFFFFF" stroke-width="2.644" stroke-linecap="round" stroke-linejoin="round" />
    <path d="M7.19649 7.16698L0.991361 0.961853" transform="translate(80.45095 80.48045)" id="Stroke-5" fill="none" fill-rule="evenodd" stroke="#FFFFFF" stroke-width="2.644" stroke-linecap="round" stroke-linejoin="round" />
  </g>
</svg>