<?xml version="1.0" encoding="UTF-8"?>
<svg width="22px" height="13px" viewBox="0 0 22 13" version="1.1" xmlns="http://www.w3.org/2000/svg" xmlns:xlink="http://www.w3.org/1999/xlink">
    <g id="Page-2" stroke="none" stroke-width="1" fill="none" fill-rule="evenodd">
        <g id="01-Home" transform="translate(-1214.000000, -4365.000000)" fill="#13404D" fill-rule="nonzero">
            <g id="Group-60" transform="translate(79.000000, 3968.000000)">
                <g id="Group-62" transform="translate(541.000000, 277.000000)">
                    <path d="M599.13003,116.163664 C599.295144,115.982038 599.563346,115.949959 599.764415,116.075534 L599.836336,116.13003 L610.836336,126.13003 C611.030308,126.306368 611.05186,126.597115 610.900994,126.798878 L610.836336,126.86997 L599.836336,136.86997 C599.632008,137.055723 599.315783,137.040665 599.13003,136.836336 C598.964916,136.654711 598.958468,136.384674 599.10258,136.196448 L599.163664,136.13003 L609.757,126.499996 L599.163664,116.86997 C598.982038,116.704856 598.949959,116.436654 599.075534,116.235585 L599.13003,116.163664 Z" id="Stroke-1-Copy-2" transform="translate(604.999998, 126.500000) rotate(-270.000000) translate(-604.999998, -126.500000) "></path>
                </g>
            </g>
        </g>
    </g>
</svg>