<?xml version="1.0" encoding="utf-8"?>
<svg width="66px" height="137px" viewBox="0 0 66 137" version="1.1" xmlns:xlink="http://www.w3.org/1999/xlink" xmlns="http://www.w3.org/2000/svg">
  <defs>
    <filter id="filter_1">
      <feColorMatrix in="SourceGraphic" type="matrix" values="0 0 0 0 1 0 0 0 0 1 0 0 0 0 1 0 0 0 1 0" />
    </filter>
  </defs>
  <g id="Group-13" transform="translate(1.5 1.5)" filter="url(#filter_1)">
    <path d="M58.7999 96.46L4.19999 96.46C1.87919 96.46 0 94.582 0 92.2662L0 4.19543C0 1.87962 1.87919 0 4.19999 0L58.7999 0C61.1191 0 62.9998 1.87962 62.9998 4.19543L62.9998 92.2662C62.9998 94.582 61.1191 96.46 58.7999 96.46Z" transform="translate(0 37.54004)" id="Stroke-1" fill="none" fill-rule="evenodd" stroke="#EF4648" stroke-width="3" stroke-linecap="round" stroke-linejoin="round" />
    <path d="M0 0.793087L62.9998 0.793087" transform="translate(0 112.237305)" id="Stroke-3" fill="none" fill-rule="evenodd" stroke="#EF4648" stroke-width="3" stroke-linecap="round" stroke-linejoin="round" />
    <path d="M0 0.793087L62.9998 0.793087" transform="translate(0 49.32959)" id="Stroke-5" fill="none" fill-rule="evenodd" stroke="#EF4648" stroke-width="3" stroke-linecap="round" stroke-linejoin="round" />
    <path d="M8.39998 4.19384C8.39998 6.50966 6.5192 8.38769 4.19999 8.38769C1.88078 8.38769 0 6.50966 0 4.19384C0 1.87803 1.88078 0 4.19999 0C6.5192 0 8.39998 1.87803 8.39998 4.19384" transform="translate(27.298828 119.3208)" id="Fill-7" fill="#EF4648" fill-rule="evenodd" stroke="none" />
    <path d="M0 6.38713C8.53024 -2.12904 22.3581 -2.12904 30.8868 6.38713" transform="translate(16.05664 16.707031)" id="Stroke-9" fill="none" fill-rule="evenodd" stroke="#EF4648" stroke-width="3" stroke-linecap="round" stroke-linejoin="round" />
    <path d="M0 9.58129C12.7938 -3.19376 33.5364 -3.19376 46.3301 9.58129" transform="translate(8.3359375 0)" id="Stroke-11" fill="none" fill-rule="evenodd" stroke="#EF4648" stroke-width="3" stroke-linecap="round" stroke-linejoin="round" />
  </g>
</svg>