<svg xmlns="http://www.w3.org/2000/svg" width="15.207" height="11" viewBox="0 0 15.207 11">
  <g id="Group_62" data-name="Group 62" transform="translate(0.5 0.5)">
    <g id="Group_61" data-name="Group 61">
      <path id="Stroke_1" data-name="Stroke 1" d="M13.391,10H.609A.617.617,0,0,1,0,9.375V.625A.617.617,0,0,1,.609,0H13.391A.617.617,0,0,1,14,.625v8.75A.617.617,0,0,1,13.391,10Z" fill="none" stroke="#7ccff3" stroke-linecap="round" stroke-linejoin="round" stroke-miterlimit="10" stroke-width="1"/>
      <path id="Stroke_3" data-name="Stroke 3" d="M5.3,5.435,0,0" transform="translate(8.697 4.348)" fill="none" stroke="#7ccff3" stroke-linecap="round" stroke-linejoin="round" stroke-miterlimit="10" stroke-width="1"/>
      <path id="Stroke_5" data-name="Stroke 5" d="M5.3,0,0,5.435" transform="translate(0.212 4.348)" fill="none" stroke="#7ccff3" stroke-linecap="round" stroke-linejoin="round" stroke-miterlimit="10" stroke-width="1"/>
      <path id="Stroke_7" data-name="Stroke 7" d="M0,0,5.97,5.284a.59.59,0,0,0,.788,0L12.727,0Z" transform="translate(0.636 0)" fill="none" stroke="#7ccff3" stroke-linecap="round" stroke-linejoin="round" stroke-miterlimit="10" stroke-width="1"/>
    </g>
  </g>
</svg>
